<?xml version="1.0" encoding="UTF-8"?>
<svg width="512" height="512" viewBox="0 0 512 512" fill="none" xmlns="http://www.w3.org/2000/svg">
  <g transform="translate(64, 64) scale(0.75)">
    <!-- Top cube -->
    <path d="M256 64L384 128L256 192L128 128L256 64Z" fill="#FFD699"/>
    <path d="M384 128L384 320L256 384L256 192L384 128Z" fill="#E6C087"/>
    <path d="M256 192L256 384L128 320L128 128L256 192Z" fill="#FFCC80"/>
    
    <!-- Bottom left cube -->
    <path d="M128 256L256 320L128 384L0 320L128 256Z" fill="#7CD0FF"/>
    <path d="M256 320L256 448L128 512L128 384L256 320Z" fill="#6BB8E6"/>
    <path d="M128 384L128 512L0 448L0 320L128 384Z" fill="#5CA5CC"/>
    
    <!-- Bottom right cube -->
    <path d="M384 256L512 320L384 384L256 320L384 256Z" fill="#FF8B8B"/>
    <path d="M512 320L512 448L384 512L384 384L512 320Z" fill="#E67979"/>
    <path d="M384 384L384 512L256 448L256 320L384 384Z" fill="#FF7070"/>
  </g>
</svg> 